#!OML:ASF F:\VICON\USERDATA\INSTALL\rory3\rory3.ASF
:FULLY-SPECIFIED
:DEGREES
426
root -3.56381 15.8843 -32.1967 196.05 14.4188 -541.946
lowerback -8.61207 2.56037 2.91353
upperback -7.76433 4.02669 -1.83997
thorax -2.94527 2.19346 -3.31131
lowerneck -14.5419 -4.10302 -6.47621
upperneck 26.3846 -4.70225 6.29167
head 11.2775 -1.53951 2.84229
rclavicle -3.80983e-014 -1.5207e-014
rhumerus -38.5917 16.3255 -101.445
rradius 45.8544
rwrist 5.93882
rhand -19.7844 -41.8253
rfingers 7.12502
rthumb 6.54799 -71.7041
lclavicle -3.80983e-014 -1.5207e-014
lhumerus -53.3753 1.49379 71.2599
lradius 24.7429
lwrist 9.05883
lhand -29.4255 333.706
lfingers 7.12502
lthumb -2.76264 3.66748
rfemur -17.7588 3.39102 23.6104
rtibia 68.6844
rfoot 6.85028 10.3776
rtoes -18.6459
lfemur -52.0971 1.34687 -29.1451
ltibia 63.2773
lfoot -26.6414 6.09364
ltoes 5.37712
427
root -3.55743 15.8399 -32.3232 195.708 14.0976 -541.696
lowerback -7.23038 2.36932 3.40468
upperback -8.03936 3.79273 -1.69857
thorax -4.00275 2.02774 -3.54749
lowerneck -13.2631 -3.7181 -7.08966
upperneck 25.6113 -4.20372 6.93183
head 10.7239 -1.32088 3.24157
rclavicle 6.38596e-015 -1.98785e-016
rhumerus -38.7418 15.6504 -100.672
rradius 44.4619
rwrist 5.52388
rhand -20.0207 -42.2404
rfingers 7.12502
rthumb 6.3198 -72.1261
lclavicle 6.38596e-015 -1.98785e-016
lhumerus -53.0429 1.00481 71.5923
lradius 25.5265
lwrist 9.51404
lhand -30.4059 331.446
lfingers 7.12502
lthumb -3.70942 1.39332
rfemur -19.0886 2.01142 23.8117
rtibia 71.6729
rfoot 4.74397 9.47648
rtoes -23.3062
lfemur -51.3078 1.04441 -28.8627
ltibia 63.5297
lfoot -27.1142 6.5177
ltoes 4.45221
428
root -3.51242 15.8073 -32.4351 195.246 15.1805 -543.418
lowerback -7.46036 2.46819 1.31866
upperback -7.75018 3.96251 -2.11889
thorax -3.63773 2.19803 -2.78281
lowerneck -12.0608 -3.54399 -7.79947
upperneck 24.3812 -4.05066 7.63791
head 10.057 -1.28727 3.60729
rclavicle -1.99654e-014 5.76476e-015
rhumerus -37.8805 14.4396 -99.4112
rradius 42.9908
rwrist 5.42286
rhand -20.2918 -42.5626
rfingers 7.12502
rthumb 6.05809 -72.456
lclavicle -1.99654e-014 5.76476e-015
lhumerus -51.6635 0.365108 72.1554
lradius 26.1034
lwrist 10.1934
lhand -31.157 331.42
lfingers 7.12502
lthumb -4.43473 1.35324
rfemur -21.5429 1.72088 21.8517
rtibia 74.6688
rfoot 3.40399 8.68682
rtoes -27.1553
lfemur -50.743 1.31523 -30.6915
ltibia 63.4448
lfoot -27.5811 6.98852
ltoes 8.05072
429
root -3.48312 15.7923 -32.5707 194.765 15.657 -544.598
lowerback -7.84951 2.38295 0.218178
upperback -7.3541 3.85987 -2.46067
thorax -3.05032 2.18012 -2.48531
lowerneck -12.2813 -3.63978 -7.59171
upperneck 24.2887 -4.15782 7.25174
head 10.0632 -1.37399 3.41276
rclavicle -1.67973e-014 -6.36111e-015
rhumerus -37.1661 12.5385 -98.1043
rradius 42.0868
rwrist 6.02711
rhand -20.7491 -42.7205
rfingers 7.12502
rthumb 5.61657 -72.6261
lclavicle -1.67973e-014 -6.36111e-015
lhumerus -50.2492 -0.130201 72.4775
lradius 26.5071
lwrist 11.3099
lhand -31.077 331.81
lfingers 7.12502
lthumb -4.35752 1.74498
rfemur -23.4778 0.996412 20.3597
rtibia 77.4602
rfoot 2.25059 7.68167
rtoes -28.4628
lfemur -49.8403 1.16742 -31.9114
ltibia 63.3188
lfoot -28.1906 7.64638
ltoes 3.58119
430
root -3.49949 15.7942 -32.7691 194.742 14.9456 -544.23
lowerback -8.08775 2.23177 1.68561
upperback -7.01932 3.53629 -2.51865
thorax -2.50205 1.94674 -3.35516
lowerneck -12.561 -3.38364 -7.79466
upperneck 23.8618 -3.86338 7.59274
head 9.94799 -1.24174 3.5909
rclavicle 7.0817e-015 4.96962e-015
rhumerus -36.2933 11.7076 -97.1615
rradius 40.3204
rwrist 5.57014
rhand -21.9691 -42.6966
rfingers 7.12502
rthumb 4.43862 -72.63
lclavicle 7.0817e-015 4.96962e-015
lhumerus -48.8275 -0.271678 72.599
lradius 27.0254
lwrist 12.0403
lhand -30.579 332.964
lfingers 7.12502
lthumb -3.87661 2.90859
rfemur -24.2358 -0.699283 20.2565
rtibia 79.2543
rfoot 0.773651 6.88893
rtoes -25.8082
lfemur -48.5617 0.34884 -31.6582
ltibia 63.2459
lfoot -29.2854 8.0083
ltoes 7.22848
431
root -3.4631 15.7552 -32.8667 194.178 15.9233 -545.335
lowerback -6.99948 2.24629 0.20716
upperback -7.10041 3.61187 -2.73202
thorax -3.24769 2.02445 -2.80808
lowerneck -12.558 -3.23979 -7.97394
upperneck 23.7603 -3.63751 7.62566
head 9.895 -1.15694 3.65795
rclavicle -7.48549e-015 -1.25234e-014
rhumerus -35.8207 10.5426 -96.1442
rradius 38.3974
rwrist 5.65947
rhand -22.8094 -42.5905
rfingers 7.12502
rthumb 3.62715 -72.5394
lclavicle -7.48549e-015 -1.25234e-014
lhumerus -47.9592 -1.15415 73.4543
lradius 26.1589
lwrist 9.25776
lhand -34.989 326.747
lfingers 7.12502
lthumb -8.13411 -3.42955
rfemur -26.5298 -0.460124 19.0311
rtibia 81.8203
rfoot 0.0156958 5.45381
rtoes -27.7889
lfemur -47.8764 0.788819 -32.8335
ltibia 63.1912
lfoot -29.5584 8.53823
ltoes -0.533925
432
root -3.45268 15.7614 -33.0924 194.381 16.0463 -544.868
lowerback -8.14875 2.29934 1.33261
upperback -6.80924 3.61883 -2.7797
thorax -2.24439 1.99075 -3.4098
lowerneck -13.3419 -3.20887 -7.41115
upperneck 24.2257 -3.5359 6.95098
head 10.1812 -1.1258 3.34163
rclavicle 1.3331e-014 2.11706e-014
rhumerus -35.1647 9.07085 -95.1031
rradius 36.5328
rwrist 6.77036
rhand -21.8783 -44.1444
rfingers 7.12502
rthumb 4.52629 -74.076
lclavicle 1.3331e-014 2.11706e-014
lhumerus -46.7296 -1.47723 73.4942
lradius 26.7314
lwrist 8.829
lhand -35.1805 330.496
lfingers 7.12502
lthumb -8.319 0.312385
rfemur -27.5668 -1.04719 19.0534
rtibia 83.2983
rfoot -1.82015 4.30238
rtoes -29.4125
lfemur -46.7971 0.749092 -32.5858
ltibia 63.2305
lfoot -30.3837 9.1416
ltoes 5.58767
433
root -3.43388 15.7535 -33.2212 194.349 16.3917 -544.828
lowerback -7.85887 2.42088 1.61329
upperback -6.31613 3.69298 -2.89913
thorax -1.8592 1.99378 -3.67907
lowerneck -15.4426 -3.31848 -7.02614
upperneck 24.6388 -3.66007 6.5121
head 10.7349 -1.20487 3.09834
rclavicle 1.99499e-014 -3.08116e-015
rhumerus -33.5834 7.53091 -93.8074
rradius 34.8473
rwrist 7.58684
rhand -20.5096 -46.4162
rfingers 7.12502
rthumb 5.8478 -76.3155
lclavicle 1.99499e-014 -3.08116e-015
lhumerus -44.4154 -1.69832 73.6989
lradius 27.1101
lwrist 8.72762
lhand -35.5894 331.447
lfingers 7.12502
lthumb -8.71357 1.24729
rfemur -29.5144 -1.01907 18.9358
rtibia 85.3225
rfoot -2.75883 2.69193
rtoes -28.3844
lfemur -46.1771 0.902217 -32.6368
ltibia 63.3073
lfoot -30.4938 9.04893
ltoes 3.40286
434
root -3.37711 15.7342 -33.2909 193.704 17.2683 -545.568
lowerback -6.61484 2.43436 0.185141
upperback -6.23472 3.74373 -3.0436
thorax -2.52771 2.04282 -3.09119
lowerneck -16.1686 -3.32312 -6.53518
upperneck 24.8855 -3.67581 6.07193
head 10.9503 -1.21752 2.85273
rclavicle -2.28369e-015 -1.45113e-014
rhumerus -33.0329 6.33075 -92.9371
rradius 33.2843
rwrist 7.19564
rhand -20.6391 -47.5931
rfingers 7.12502
rthumb 5.72283 -77.4958
lclavicle -2.28369e-015 -1.45113e-014
lhumerus -42.8291 -2.05725 73.7808
lradius 27.3911
lwrist 8.5949
lhand -36.2171 331.487
lfingers 7.12502
lthumb -9.31926 1.26121
rfemur -32.057 -0.0868435 18.3344
rtibia 87.5428
rfoot -2.8325 0.850235
rtoes -26.0476
lfemur -45.565 1.60311 -33.2991
ltibia 63.3158
lfoot -30.5364 8.82832
ltoes 5.08534
435
root -3.36733 15.7251 -33.3654 193.681 17.0809 -545.693
lowerback -7.17595 2.39077 0.527008
upperback -5.16149 3.5892 -3.26222
thorax -1.07577 1.92822 -3.44054
lowerneck -16.9505 -3.20281 -6.61005
upperneck 23.8288 -3.66238 6.50223
head 10.7188 -1.21674 2.98849
rclavicle -6.5748e-014 1.77912e-014
rhumerus -30.633 4.86049 -91.8064
rradius 31.574
rwrist 7.48346
rhand -19.9603 -49.9273
rfingers 7.12502
rthumb 6.37818 -79.8112
lclavicle -6.5748e-014 1.77912e-014
lhumerus -39.3442 -2.09394 73.8543
lradius 27.3665
lwrist 8.41736
lhand -36.7207 330.467
lfingers 7.12502
lthumb -9.80519 0.219098
rfemur -34.5482 -0.348293 18.1865
rtibia 89.3267
rfoot -3.84625 -0.697392
rtoes -24.729
lfemur -45.2283 1.44405 -33.4321
ltibia 63.3172
lfoot -30.7581 9.05508
ltoes 4.91678
